<?xml version="1.0" encoding="utf-8"?>
<!-- Generator: Adobe Illustrator 16.0.0, SVG Export Plug-In . SVG Version: 6.00 Build 0)  -->
<!DOCTYPE svg PUBLIC "-//W3C//DTD SVG 1.1//EN" "http://www.w3.org/Graphics/SVG/1.1/DTD/svg11.dtd">
<svg version="1.1" id="Layer_1" xmlns="http://www.w3.org/2000/svg" xmlns:xlink="http://www.w3.org/1999/xlink" x="0px" y="0px"
	 width="46.617px" height="48.978px" viewBox="0 0 46.617 48.978" enable-background="new 0 0 46.617 48.978" xml:space="preserve">
<g id="star_x5F_fil">
	<g id="star_x5F_lin">
		<path d="M46.573,47.391c-0.333-11.313-7.822-13.646-11.02-14.642l-0.42-0.132c-3.185-1.012-8.234-1.465-11.825-1.465
			c-3.59,0-8.639,0.453-11.826,1.465l-0.419,0.131c-3.197,0.996-10.687,3.329-11.02,14.642l-0.045,1.499l2.999,0.088l0.044-1.5
			c0.271-9.173,5.682-10.858,8.914-11.865l0.436-0.137c2.865-0.91,7.667-1.324,10.917-1.324c3.251,0,8.054,0.415,10.916,1.324
			l0.437,0.137c3.232,1.007,8.644,2.692,8.914,11.865l0.044,1.5l2.999-0.088L46.573,47.391z M23.309,26.729
			c6.341,0,10.931-9.12,10.931-15.268C34.239,5.141,29.336,0,23.309,0C17.28,0,12.376,5.141,12.376,11.46
			C12.376,17.608,16.967,26.729,23.309,26.729z M23.309,3c4.373,0,7.931,3.795,7.931,8.46c0,5.13-3.996,12.268-7.931,12.268
			c-3.936,0-7.933-7.138-7.933-12.268C15.376,6.795,18.935,3,23.309,3z"/>
	</g>
</g>
</svg>
