<?xml version="1.0" encoding="utf-8"?>
<!-- Generator: Adobe Illustrator 16.0.0, SVG Export Plug-In . SVG Version: 6.00 Build 0)  -->
<!DOCTYPE svg PUBLIC "-//W3C//DTD SVG 1.1//EN" "http://www.w3.org/Graphics/SVG/1.1/DTD/svg11.dtd">
<svg version="1.1" xmlns="http://www.w3.org/2000/svg" xmlns:xlink="http://www.w3.org/1999/xlink" x="0px" y="0px"
	 width="322.592px" height="322.593px" viewBox="0 0 322.592 322.593" enable-background="new 0 0 322.592 322.593"
	 xml:space="preserve">
<g id="Layer_4">
</g>
<g id="Layer_1">
	<g>
		<circle opacity="0.3" cx="161.296" cy="161.296" r="161.296"/>
		<g>
			
				<path fill="none" stroke="#FFFFFF" stroke-width="2.7023" stroke-linecap="round" stroke-linejoin="round" stroke-miterlimit="10" d="
				M279.296,222.098c0,6.44-5.27,11.71-11.71,11.71H55.005c-6.44,0-11.709-5.27-11.709-11.71V100.495
				c0-6.44,5.27-11.709,11.709-11.709h212.581c6.44,0,11.71,5.27,11.71,11.709V222.098z"/>
			
				<path fill="none" stroke="#FFFFFF" stroke-width="2.7023" stroke-linecap="round" stroke-linejoin="round" stroke-miterlimit="10" d="
				M263.983,202.282v8.106c0,4.459-3.648,8.107-8.107,8.107H66.715c-4.459,0-8.106-3.648-8.106-8.107v-98.183
				c0-4.459,3.647-8.107,8.106-8.107h189.161c4.459,0,8.107,3.648,8.107,8.107v8.107"/>
			
				<line fill="none" stroke="#FFFFFF" stroke-width="2.7023" stroke-linecap="round" stroke-linejoin="round" stroke-miterlimit="10" x1="263.983" y1="150.488" x2="263.983" y2="172.106"/>
			<g>
				
					<rect x="258.578" y="120.312" fill="none" stroke="#FFFFFF" stroke-width="2.7023" stroke-linecap="round" stroke-linejoin="round" stroke-miterlimit="10" width="10.809" height="30.176"/>
				
					<rect x="258.578" y="172.106" fill="none" stroke="#FFFFFF" stroke-width="2.7023" stroke-linecap="round" stroke-linejoin="round" stroke-miterlimit="10" width="10.809" height="30.176"/>
			</g>
			<g>
				
					<circle fill="none" stroke="#FFF200" stroke-width="2.7023" stroke-linecap="round" stroke-linejoin="round" stroke-miterlimit="10" cx="198.493" cy="161.297" r="40.018"/>
				
					<circle fill="none" stroke="#FFFFFF" stroke-width="2.7023" stroke-linecap="round" stroke-linejoin="round" stroke-miterlimit="10" cx="198.493" cy="161.297" r="13.729"/>
				<g>
					
						<line fill="none" stroke="#FFF200" stroke-width="2.7023" stroke-linecap="round" stroke-linejoin="round" stroke-miterlimit="10" x1="198.493" y1="127.925" x2="198.493" y2="140.825"/>
					
						<line fill="none" stroke="#FFF200" stroke-width="2.7023" stroke-linecap="round" stroke-linejoin="round" stroke-miterlimit="10" x1="198.493" y1="181.769" x2="198.493" y2="194.668"/>
				</g>
				
					<line fill="none" stroke="#FFF200" stroke-width="2.7023" stroke-linecap="round" stroke-linejoin="round" stroke-miterlimit="10" x1="185.722" y1="130.466" x2="188.364" y2="136.844"/>
				
					<line fill="none" stroke="#FFF200" stroke-width="2.7023" stroke-linecap="round" stroke-linejoin="round" stroke-miterlimit="10" x1="206.327" y1="180.21" x2="211.263" y2="192.127"/>
				
					<line fill="none" stroke="#FFF200" stroke-width="2.7023" stroke-linecap="round" stroke-linejoin="round" stroke-miterlimit="10" x1="174.896" y1="137.7" x2="180.115" y2="142.919"/>
				
					<line fill="none" stroke="#FFF200" stroke-width="2.7023" stroke-linecap="round" stroke-linejoin="round" stroke-miterlimit="10" x1="212.969" y1="175.771" x2="222.09" y2="184.893"/>
				<g>
					
						<line fill="none" stroke="#FFF200" stroke-width="2.7023" stroke-linecap="round" stroke-linejoin="round" stroke-miterlimit="10" x1="167.662" y1="148.526" x2="179.579" y2="153.463"/>
					
						<line fill="none" stroke="#FFF200" stroke-width="2.7023" stroke-linecap="round" stroke-linejoin="round" stroke-miterlimit="10" x1="217.406" y1="169.13" x2="229.324" y2="174.066"/>
				</g>
				<g>
					
						<line fill="none" stroke="#FFF200" stroke-width="2.7023" stroke-linecap="round" stroke-linejoin="round" stroke-miterlimit="10" x1="165.123" y1="161.297" x2="178.021" y2="161.297"/>
					
						<line fill="none" stroke="#FFF200" stroke-width="2.7023" stroke-linecap="round" stroke-linejoin="round" stroke-miterlimit="10" x1="218.964" y1="161.296" x2="231.864" y2="161.295"/>
				</g>
				<g>
					
						<line fill="none" stroke="#FFF200" stroke-width="2.7023" stroke-linecap="round" stroke-linejoin="round" stroke-miterlimit="10" x1="167.663" y1="174.068" x2="179.579" y2="169.131"/>
					
						<line fill="none" stroke="#FFF200" stroke-width="2.7023" stroke-linecap="round" stroke-linejoin="round" stroke-miterlimit="10" x1="217.406" y1="153.462" x2="229.323" y2="148.525"/>
				</g>
				<g>
					
						<line fill="none" stroke="#FFF200" stroke-width="2.7023" stroke-linecap="round" stroke-linejoin="round" stroke-miterlimit="10" x1="174.896" y1="184.893" x2="184.017" y2="175.772"/>
					
						<line fill="none" stroke="#FFF200" stroke-width="2.7023" stroke-linecap="round" stroke-linejoin="round" stroke-miterlimit="10" x1="212.967" y1="146.82" x2="222.088" y2="137.699"/>
				</g>
				<g>
					
						<line fill="none" stroke="#FFF200" stroke-width="2.7023" stroke-linecap="round" stroke-linejoin="round" stroke-miterlimit="10" x1="185.722" y1="192.127" x2="190.659" y2="180.21"/>
					
						<line fill="none" stroke="#FFF200" stroke-width="2.7023" stroke-linecap="round" stroke-linejoin="round" stroke-miterlimit="10" x1="206.326" y1="142.383" x2="211.262" y2="130.465"/>
				</g>
				
					<polyline fill="none" stroke="#FFFFFF" stroke-width="2.7023" stroke-linecap="round" stroke-linejoin="round" stroke-miterlimit="10" points="
					186.942,152.939 183.078,137.699 195.672,147.319 				"/>
			</g>
			<g>
				
					<rect x="68.217" y="114.464" fill="none" stroke="#FFFFFF" stroke-width="2.7023" stroke-linecap="round" stroke-linejoin="round" stroke-miterlimit="10" width="12.75" height="12.751"/>
				
					<rect x="88.718" y="114.464" fill="none" stroke="#FFFFFF" stroke-width="2.7023" stroke-linecap="round" stroke-linejoin="round" stroke-miterlimit="10" width="12.751" height="12.751"/>
				
					<rect x="109.219" y="114.464" fill="none" stroke="#FFFFFF" stroke-width="2.7023" stroke-linecap="round" stroke-linejoin="round" stroke-miterlimit="10" width="12.751" height="12.751"/>
				
					<rect x="68.217" y="134.5" fill="none" stroke="#FFFFFF" stroke-width="2.7023" stroke-linecap="round" stroke-linejoin="round" stroke-miterlimit="10" width="12.75" height="12.751"/>
				
					<rect x="88.718" y="134.5" fill="none" stroke="#FFFFFF" stroke-width="2.7023" stroke-linecap="round" stroke-linejoin="round" stroke-miterlimit="10" width="12.751" height="12.751"/>
				
					<rect x="109.219" y="134.5" fill="none" stroke="#FFFFFF" stroke-width="2.7023" stroke-linecap="round" stroke-linejoin="round" stroke-miterlimit="10" width="12.751" height="12.751"/>
				
					<rect x="68.217" y="154.537" fill="none" stroke="#FFFFFF" stroke-width="2.7023" stroke-linecap="round" stroke-linejoin="round" stroke-miterlimit="10" width="12.75" height="12.75"/>
				
					<rect x="88.718" y="154.537" fill="none" stroke="#FFFFFF" stroke-width="2.7023" stroke-linecap="round" stroke-linejoin="round" stroke-miterlimit="10" width="12.751" height="12.75"/>
				
					<rect x="88.718" y="173.718" fill="none" stroke="#FFFFFF" stroke-width="2.7023" stroke-linecap="round" stroke-linejoin="round" stroke-miterlimit="10" width="12.751" height="12.751"/>
				
					<rect x="109.219" y="154.537" fill="none" stroke="#FFFFFF" stroke-width="2.7023" stroke-linecap="round" stroke-linejoin="round" stroke-miterlimit="10" width="12.751" height="12.75"/>
			</g>
		</g>
	</g>
</g>
<g id="pop-ups">
</g>
</svg>
