<?xml version="1.0" encoding="utf-8"?>
<!-- Generator: Adobe Illustrator 16.0.0, SVG Export Plug-In . SVG Version: 6.00 Build 0)  -->
<!DOCTYPE svg PUBLIC "-//W3C//DTD SVG 1.1//EN" "http://www.w3.org/Graphics/SVG/1.1/DTD/svg11.dtd">
<svg version="1.1" id="Layer_1" xmlns="http://www.w3.org/2000/svg" xmlns:xlink="http://www.w3.org/1999/xlink" x="0px" y="0px"
	 width="39.666px" height="39.666px" viewBox="0 0 39.666 39.666" enable-background="new 0 0 39.666 39.666" xml:space="preserve">
<g id="star_x5F_fil">
	<g id="star_x5F_lin">
		<path d="M19.833,0C8.897,0,0,8.897,0,19.833c0,5.672,2.406,10.781,6.235,14.399l0.585,0.699l0.096-0.08
			c3.475,2.992,7.983,4.815,12.917,4.815c4.935,0,9.443-1.823,12.917-4.815l0.089,0.074l0.538-0.644
			c3.86-3.621,6.289-8.75,6.289-14.448C39.666,8.897,30.769,0,19.833,0z M19.833,36.666c-3.98,0-7.637-1.396-10.521-3.714
			c3.076-2.127,6.753-3.286,10.521-3.286c3.77,0,7.447,1.158,10.522,3.285C27.471,35.27,23.814,36.666,19.833,36.666z
			 M32.539,30.841c-3.67-2.692-8.126-4.175-12.706-4.175c-4.579,0-9.033,1.483-12.705,4.175C4.564,27.887,3,24.043,3,19.833
			C3,10.551,10.551,3,19.833,3s16.833,7.551,16.833,16.833C36.666,24.042,35.103,27.886,32.539,30.841z M19.833,7.47
			c-4.235,0-7.682,3.446-7.682,7.682c0,4.045,3.226,10.045,7.682,10.045s7.682-6,7.682-10.045
			C27.515,10.916,24.068,7.47,19.833,7.47z M19.833,22.196c-2.261,0-4.682-4.135-4.682-7.045c0-2.582,2.101-4.682,4.682-4.682
			s4.682,2.1,4.682,4.682C24.515,18.062,22.094,22.196,19.833,22.196z"/>
	</g>
</g>
</svg>
