<?xml version="1.0" encoding="utf-8"?>
<!-- Generator: Adobe Illustrator 16.0.0, SVG Export Plug-In . SVG Version: 6.00 Build 0)  -->
<!DOCTYPE svg PUBLIC "-//W3C//DTD SVG 1.1//EN" "http://www.w3.org/Graphics/SVG/1.1/DTD/svg11.dtd">
<svg version="1.1" id="Layer_1" xmlns="http://www.w3.org/2000/svg" xmlns:xlink="http://www.w3.org/1999/xlink" x="0px" y="0px"
	 width="15.745px" height="19.432px" viewBox="0 0 15.745 19.432" enable-background="new 0 0 15.745 19.432" xml:space="preserve">
<path d="M4.303,11.752c0-0.333-0.265-0.539-0.743-0.539H2.49v1.125h1.016C3.983,12.338,4.303,12.15,4.303,11.752z M4.54,13.535
	c0-0.356-0.284-0.568-0.872-0.568H2.49v1.161h1.233C4.23,14.128,4.54,13.928,4.54,13.535z M11.978,0H1.534v9.117H0.007
	C0.004,9.117,0,9.121,0,9.125v7.092c0,0.004,0.004,0.006,0.007,0.006h1.527v3.209h14.211V4.106L11.978,0z M12.304,2.071l1.675,1.826
	h-1.675V2.071z M1.758,10.555h1.898c0.483,0,0.865,0.133,1.106,0.374c0.188,0.188,0.284,0.417,0.284,0.715
	c0,0.507-0.289,0.779-0.604,0.942c0.496,0.169,0.841,0.453,0.841,1.039c0,0.757-0.624,1.162-1.565,1.162h-1.96V10.555z
	 M14.585,18.271H2.694v-2.049H13.48c0.003,0,0.007-0.002,0.007-0.006V9.125c0-0.004-0.004-0.008-0.007-0.008H2.694V1.16h8.448v3.897
	h3.442V18.271z M6.167,14.787v-4.232h0.744v4.232H6.167z M8.042,14.787v-4.232h0.689l2.267,2.926v-2.926h0.731v4.232h-0.623
	l-2.332-3.012v3.012H8.042z"/>
<g id="star_x5F_fil">
	<g id="star_x5F_lin">
	</g>
</g>
</svg>
