<?xml version="1.0" encoding="utf-8"?>
<!-- Generator: Adobe Illustrator 16.0.0, SVG Export Plug-In . SVG Version: 6.00 Build 0)  -->
<!DOCTYPE svg PUBLIC "-//W3C//DTD SVG 1.1//EN" "http://www.w3.org/Graphics/SVG/1.1/DTD/svg11.dtd">
<svg version="1.1" xmlns="http://www.w3.org/2000/svg" xmlns:xlink="http://www.w3.org/1999/xlink" x="0px" y="0px"
	 width="1100.385px" height="256.969px" viewBox="3368.221 1337.661 1100.385 256.969"
	 enable-background="new 3368.221 1337.661 1100.385 256.969" xml:space="preserve">
<g id="Layer_2" display="none">
	<rect x="2390.501" y="1286.076" display="inline" fill="#7A7A7A" width="3453.999" height="359.982"/>
</g>
<g id="Layer_1">
	<g>
		<g>
			<rect x="3675.104" y="1475.399" fill="#FFFFFF" width="7" height="82"/>
			<path fill="#FFFFFF" d="M3626.804,1475.15h-1.449c-12.561,0-23.691,6.214-30.5,15.723v-65.474h-7v87.251v7.249v37.5h7v-15.724
				c6.809,9.51,17.939,15.724,30.5,15.724h1.449c20.678,0,37.5-16.822,37.5-37.5v-7.249
				C3664.304,1491.973,3647.481,1475.15,3626.804,1475.15z M3657.304,1519.899c0,16.817-13.683,30.5-30.5,30.5h-1.449
				c-16.817,0-30.5-13.683-30.5-30.5v-7.249c0-16.817,13.683-30.5,30.5-30.5h1.449c16.817,0,30.5,13.683,30.5,30.5V1519.899z"/>
			<path fill="#FFFFFF" d="M3727.145,1547.363c-1.8,1.93-4.329,3.036-6.94,3.036h-2c-5.238,0-9.5-4.262-9.5-9.5v-58.749h21.2v-7
				h-21.2V1448h-7v27.15h-10.8v7h10.8v58.749c0,9.098,7.402,16.5,16.5,16.5h2c4.545,0,8.94-1.918,12.06-5.263L3727.145,1547.363z"/>
		</g>
		<path fill="#FFFFFF" d="M3423.568,1498.722l-55.348-55.348v66.521h51.008C3419.823,1505.894,3421.307,1502.075,3423.568,1498.722z
			 M3419.229,1520.8h-51.008c1.184,17.328,7.966,33.802,19.324,46.94l36.023-36.422
			C3421.273,1528.226,3419.782,1524.611,3419.229,1520.8L3419.229,1520.8z M3499.681,1455.205
			c-13.004-11.569-29.547-18.387-46.927-19.338v50.952c3.905,0.629,7.629,2.089,10.922,4.282L3499.681,1455.205z M3472.078,1530.791
			l36.023,36.021c11.164-12.965,17.807-29.211,18.926-46.283h-51.265c-0.611,3.61-1.858,7.085-3.683,10.261l0,0L3472.078,1530.791z
			 M3475.763,1509.896h51.008c-1.185-17.327-7.967-33.801-19.324-46.94l-36.024,36.151c2.268,3.211,3.754,6.906,4.341,10.793l0,0
			V1509.896z M3395.237,1575.306c13.01,11.568,29.559,18.381,46.941,19.324v-51.08c-3.905-0.629-7.63-2.089-10.921-4.282
			L3395.237,1575.306z M3452.754,1543.551v51.008c17.384-1.161,33.892-8.052,46.94-19.595l-35.77-35.771
			c-3.401,2.177-7.201,3.656-11.178,4.354l0,0L3452.754,1543.551z M3368.221,1426.881c13.671,13.671,56.533,56.932,63.767,64.023
			c3.081-1.905,6.458-3.284,9.991-4.082v-83.296l-73.629-65.865C3368.221,1337.661,3368.221,1424.436,3368.221,1426.881z"/>
		<polygon fill="#FFFFFF" points="3680.454,1450.44 3680.454,1464.77 3669.124,1455.23 3669.124,1440.9 		"/>
		<g>
			<path fill="#FFFFFF" d="M3859.247,1484.553c-5.785-5.773-13.437-8.953-21.543-8.953c-9.445,0-17.901,4.316-23.5,11.08v-61.28h-7
				v132h7v-51.3c0-12.958,10.542-23.5,23.5-23.5c6.239,0,12.135,2.453,16.596,6.905c4.452,4.453,6.904,10.346,6.904,16.595v51.3h7
				v-51.3C3868.204,1497.981,3865.023,1490.33,3859.247,1484.553z"/>
			<path fill="#FFFFFF" d="M4106.494,1558.065c-2.034,0-4.138-0.159-6.301-0.478c-13.801-2.035-24.4-12.547-24.845-12.993
				l4.961-4.939l-2.48,2.47l2.477-2.473c0.093,0.093,9.449,9.32,20.909,11.01c6.997,1.033,13.099,0.08,17.634-2.755l0.096-0.06
				c3.593-2.231,7.728-6.499,7.024-14.152c-0.813-8.847-10.262-11.725-19.056-13.729l-1.942-0.42
				c-14.043-2.986-22.475-10.082-23.738-19.979c-1.651-12.939,6.752-19.277,9.365-20.911c5.907-3.69,13.336-4.952,22.083-3.75
				c10.82,1.488,19.256,8.067,19.609,8.347l-4.339,5.494c-0.066-0.053-7.34-5.685-16.224-6.905c-7.08-0.974-12.94-0.049-17.418,2.75
				c-2.209,1.381-7.228,5.517-6.134,14.089c1.1,8.612,10.535,12.378,18.257,14.02l2.036,0.44c7.506,1.71,23.126,5.27,24.471,19.913
				c0.791,8.621-2.963,16.181-10.302,20.739C4118.102,1556.628,4112.614,1558.065,4106.494,1558.065z"/>
			<path fill="#FFFFFF" d="M3768.161,1558.065c-2.034,0-4.138-0.159-6.301-0.478c-13.801-2.035-24.4-12.547-24.845-12.993
				l4.961-4.939l-2.48,2.47l2.477-2.473c0.094,0.093,9.449,9.32,20.908,11.01c6.998,1.033,13.1,0.08,17.635-2.755l0.096-0.06
				c3.593-2.231,7.728-6.499,7.023-14.152c-0.812-8.847-10.261-11.725-19.055-13.729l-1.942-0.42
				c-14.043-2.986-22.475-10.082-23.738-19.979c-1.651-12.939,6.752-19.277,9.366-20.911c5.906-3.69,13.335-4.952,22.082-3.75
				c10.82,1.488,19.256,8.067,19.609,8.347l-4.338,5.494c-0.067-0.053-7.341-5.685-16.225-6.905
				c-7.08-0.974-12.94-0.049-17.418,2.75c-2.209,1.381-7.228,5.517-6.134,14.089c1.1,8.612,10.535,12.378,18.257,14.02l2.035,0.44
				c7.507,1.71,23.127,5.27,24.472,19.913c0.792,8.621-2.963,16.181-10.302,20.739
				C3779.77,1556.628,3774.281,1558.065,3768.161,1558.065z"/>
			<path fill="#FFFFFF" d="M3942.16,1527.55l-0.233-0.037c0.01-8.001-0.04-15.708-0.226-20.158
				c-0.311-7.454-1.256-30.139-26.881-32.835c-12.591-1.326-23.257,2.701-29.645,6.031l3.167,6.256
				c5.5-2.873,14.852-6.47,25.745-5.326c17.189,1.81,20.091,14.111,20.609,25.969c-5.408-1.258-15.07-2.962-26.154-2.445
				c-18.437,0.851-29.47,9.416-31.068,24.118c-1.482,13.643,5.903,24.904,18.381,28.023c3.036,0.759,6.109,1.131,9.146,1.131
				c8.062-0.001,15.849-2.621,21.914-7.563c2.256-1.838,5.198-4.247,7.926-7.475c-0.062,7.348-0.135,12.823-0.137,12.964l7,0.096
				c0.013-0.916,0.193-14.418,0.221-27.542C3942.004,1528.354,3942.095,1527.963,3942.16,1527.55z M3922.493,1545.287
				c-6.646,5.415-15.968,7.31-24.94,5.067c-8.936-2.233-14.208-10.463-13.119-20.477c1.513-13.917,14.121-17.406,24.432-17.882
				c11.572-0.533,21.663,1.604,26.005,2.71c0.048,3.947,0.061,8.626,0.053,13.396
				C3932.922,1536.783,3926.698,1541.86,3922.493,1545.287z"/>
			<path fill="#FFFFFF" d="M4061.558,1540.045c-6.575,7.333-16.506,11.317-27.436,10.793c-17.86-0.852-30.334-15.108-30.335-34.671
				c0-0.901,0.022-1.79,0.066-2.666h65.436l-0.179-3.67c-0.989-20.299-15.692-35.156-34.958-35.33
				c-9.834-0.115-18.902,3.524-25.609,10.172c-7.691,7.623-11.757,18.514-11.756,31.494c0.001,23.119,15.563,40.642,37.001,41.663
				c0.753,0.036,1.5,0.054,2.243,0.054c11.937,0,22.767-4.593,30.265-12.661L4061.558,1540.045z M4013.47,1489.646
				c5.307-5.26,12.519-8.146,20.334-8.146c0.095,0,0.19,0,0.286,0.001c14.267,0.128,25.416,10.436,27.659,25h-57.019
				C4006.133,1499.717,4009.087,1493.989,4013.47,1489.646z"/>
			<path fill="#FFFFFF" d="M3996.823,1480.536c-4.345-3.164-9.465-4.9-14.72-4.937c-0.066,0-0.132-0.001-0.198-0.001
				c-6.954,0-13.186,2.541-18.031,7.354c-0.676,0.671-1.314,1.385-1.92,2.132v-8.435h-7v80.75h7v-51.3
				c0-7.229,2.497-13.855,6.853-18.181c3.506-3.482,8.034-5.32,13.104-5.32c0.048,0,0.097,0.001,0.145,0.001
				c4.45,0.031,8.622,1.695,12.119,4.789L3996.823,1480.536z"/>
		</g>
		<g>
			<path fill="#FFFFFF" d="M4155.791,1424.475h41.359c20.143,0,35.742,5.804,46.797,17.41c11.054,11.606,16.58,27.943,16.58,49.006
				c0,21.127-5.526,37.492-16.58,49.099c-11.055,11.606-26.654,17.41-46.797,17.41h-41.359V1424.475z M4163.16,1431.199v119.476
				h33.623c18.115,0,32.041-5.173,41.774-15.521c9.733-10.348,14.601-25.07,14.601-44.17c0-19.221-4.882-33.991-14.646-44.309
				s-23.674-15.476-41.729-15.476H4163.16z"/>
			<path fill="#FFFFFF" d="M4351.811,1550.675v6.725h-77.471v-132.925h77.471v6.725h-70.193v54.718h66.877v6.632h-66.877v58.126
				H4351.811z"/>
			<path fill="#FFFFFF" d="M4364.422,1557.399l47.532-66.509v-0.184l-47.349-66.232h8.752l43.202,60.613h0.185l43.387-60.613h8.475
				l-47.716,66.416v0.185l47.439,66.324h-8.751l-43.11-60.429h-0.185l-43.387,60.429H4364.422z"/>
		</g>
	</g>
</g>
</svg>
