<?xml version="1.0" encoding="utf-8"?>
<!-- Generator: Adobe Illustrator 16.0.0, SVG Export Plug-In . SVG Version: 6.00 Build 0)  -->
<!DOCTYPE svg PUBLIC "-//W3C//DTD SVG 1.1//EN" "http://www.w3.org/Graphics/SVG/1.1/DTD/svg11.dtd">
<svg version="1.1" id="Layer_1" xmlns="http://www.w3.org/2000/svg" xmlns:xlink="http://www.w3.org/1999/xlink" x="0px" y="0px"
	 width="14.396px" height="17.188px" viewBox="0 0 14.396 17.188" enable-background="new 0 0 14.396 17.188" xml:space="preserve">
<path d="M10.625,4.938V4.146h-1v0.792H5.354L3.856,3.44l2.717,0.1l0.024-0.7L2.396,2.687L2.55,6.888l0.699-0.025L3.15,4.148
	l1.62,1.62v6.482H3.979v1h0.791v3.938h9.625V4.938H10.625z M13.396,16.188H5.771V6.769l2.772,2.772L9.25,8.834L6.354,5.938h7.042
	V16.188z M4.771,0h-1v1h1V0z M0,11.229h1v-1H0V11.229z M0,13.25h0.979L1,12.229H0V13.25z M10.625,0H9.771v0.5H9.625v0.646h1V0z
	 M8.771,0h-1v1h1V0z M10.625,2.146h-1v1h1V2.146z M6.771,0h-1v1h1V0z M0.771,0H0v1.229h1V0.5H0.771V0z M2.771,0h-1v1h1V0z
	 M1.979,13.25h1v-1h-1V13.25z M0,5.229h1v-1H0V5.229z M0,7.229h1v-1H0V7.229z M0,3.229h1v-1H0V3.229z M0,9.229h1v-1H0V9.229z"/>
<g id="star_x5F_fil">
	<g id="star_x5F_lin">
	</g>
</g>
</svg>
