<?xml version="1.0" encoding="utf-8"?>
<!-- Generator: Adobe Illustrator 16.0.0, SVG Export Plug-In . SVG Version: 6.00 Build 0)  -->
<!DOCTYPE svg PUBLIC "-//W3C//DTD SVG 1.1//EN" "http://www.w3.org/Graphics/SVG/1.1/DTD/svg11.dtd">
<svg version="1.1" id="Layer_1" xmlns="http://www.w3.org/2000/svg" xmlns:xlink="http://www.w3.org/1999/xlink" x="0px" y="0px"
	 width="16.768px" height="21.988px" viewBox="0 0 16.768 21.988" enable-background="new 0 0 16.768 21.988" xml:space="preserve">
<path d="M11.308,1.737L9.67,0.719C9.552,0.146,9.107-0.053,8.302,0.055c-0.316,0.041-0.719,0.041-1.035,0
	c-0.802-0.106-1.251,0.09-1.369,0.665L4.261,1.737v2.934h7.047V1.737z M10.308,3.671H5.261V2.292l1.608-1V1.016
	c0.081,0.005,0.17,0.018,0.268,0.03c0.395,0.053,0.9,0.053,1.295,0c0.09-0.012,0.173-0.023,0.267-0.028v0.274l1.609,1V3.671z
	 M15.56,9.469v-7.03h-3.366v1h2.366v6.03H6.24v9.838H1.009V3.438h2.366v-1H0.009v17.868H6.24v1.517h10.375V9.469H15.56z
	 M15.615,20.823H7.24V10.469h8.375V20.823z M13.803,12.573h-4.75v1h4.75V12.573z M13.803,15.031h-4.75v1h4.75V15.031z M13.803,17.49
	h-4.75v1h4.75V17.49z"/>
<g id="star_x5F_fil">
	<g id="star_x5F_lin">
	</g>
</g>
</svg>
