<?xml version="1.0" encoding="utf-8"?>
<!-- Generator: Adobe Illustrator 16.0.0, SVG Export Plug-In . SVG Version: 6.00 Build 0)  -->
<!DOCTYPE svg PUBLIC "-//W3C//DTD SVG 1.1//EN" "http://www.w3.org/Graphics/SVG/1.1/DTD/svg11.dtd">
<svg version="1.1" id="Layer_1" xmlns="http://www.w3.org/2000/svg" xmlns:xlink="http://www.w3.org/1999/xlink" x="0px" y="0px"
	 width="80px" height="80px" viewBox="0 0 80 80" enable-background="new 0 0 80 80" xml:space="preserve">
<g id="star_x5F_fil">
	<g id="star_x5F_lin">
	</g>
</g>
<g>
	<path fill="#6D6E70" d="M62.274,29.469h-7.017c-1.114,0-2.229-0.888-2.479-1.974l-1.188-5.165c-0.25-1.085-1.365-1.974-2.479-1.974
		H30.888c-1.114,0-2.229,0.889-2.479,1.974l-1.188,5.165c-0.25,1.085-1.366,1.974-2.479,1.974h-7.017
		c-1.114,0-2.025,0.912-2.025,2.025v21.938c0,1.113,0.911,2.025,2.025,2.025h44.549c1.113,0,2.024-0.912,2.024-2.025V31.494
		C64.299,30.381,63.388,29.469,62.274,29.469z M40,52.4c-7.165,0-12.974-5.809-12.974-12.975c0-7.166,5.809-12.974,12.974-12.974
		s12.974,5.808,12.974,12.974C52.974,46.592,47.165,52.4,40,52.4z M31.077,39.426h2.024c0-3.804,3.094-6.899,6.898-6.899v-2.025
		C35.08,30.501,31.077,34.505,31.077,39.426z"/>
	<path fill="#4D4D4D" d="M68.297,11.702c-15.603-15.603-40.991-15.603-56.595,0C-3.9,27.305-3.9,52.693,11.702,68.298
		c15.604,15.603,40.992,15.603,56.595,0C83.9,52.693,83.9,27.305,68.297,11.702z M14.292,14.291
		C28.033,0.55,50.128,0.13,64.381,13.029L13.03,64.38C0.13,50.127,0.551,28.033,14.292,14.291z M65.708,65.707
		C51.967,79.449,29.873,79.869,15.62,66.97l51.35-51.352C79.869,29.872,79.449,51.967,65.708,65.707z"/>
</g>
</svg>
