<?xml version="1.0" encoding="utf-8"?>
<!-- Generator: Adobe Illustrator 16.0.0, SVG Export Plug-In . SVG Version: 6.00 Build 0)  -->
<!DOCTYPE svg PUBLIC "-//W3C//DTD SVG 1.1//EN" "http://www.w3.org/Graphics/SVG/1.1/DTD/svg11.dtd">
<svg version="1.1" id="Layer_1" xmlns="http://www.w3.org/2000/svg" xmlns:xlink="http://www.w3.org/1999/xlink" x="0px" y="0px"
	 width="80px" height="80.001px" viewBox="0 0 80 80.001" enable-background="new 0 0 80 80.001" xml:space="preserve">
<g id="star_x5F_fil">
	<g id="star_x5F_lin">
	</g>
</g>
<g>
	<circle opacity="0.45" cx="40" cy="40.001" r="40"/>
	<g>
		<path fill="#FFFFFF" d="M66.359,58.318H13.641c-1.787,0-3.238-1.453-3.238-3.238V24.922c0-1.786,1.451-3.239,3.238-3.239h52.719
			c1.785,0,3.238,1.453,3.238,3.239V55.08C69.598,56.865,68.145,58.318,66.359,58.318z M13.641,22.353
			c-1.416,0-2.568,1.153-2.568,2.569V55.08c0,1.416,1.152,2.568,2.568,2.568h52.719c1.416,0,2.568-1.152,2.568-2.568V24.922
			c0-1.417-1.152-2.569-2.568-2.569H13.641z"/>
		<path fill="#FFFFFF" d="M63.455,54.521h-46.91c-1.295,0-2.346-1.053-2.346-2.346V27.827c0-1.293,1.051-2.346,2.346-2.346h46.91
			c1.293,0,2.346,1.052,2.346,2.346v2.011c0,0.185-0.15,0.335-0.336,0.335s-0.334-0.15-0.334-0.335v-2.011
			c0-0.924-0.752-1.676-1.676-1.676h-46.91c-0.924,0-1.676,0.752-1.676,1.676v24.349c0,0.924,0.752,1.676,1.676,1.676h46.91
			c0.924,0,1.676-0.752,1.676-1.676v-2.012c0-0.184,0.148-0.334,0.334-0.334s0.336,0.15,0.336,0.334v2.012
			C65.801,53.469,64.748,54.521,63.455,54.521z"/>
		<path fill="#FFFFFF" d="M65.465,43.018c-0.186,0-0.334-0.15-0.334-0.336v-5.361c0-0.185,0.148-0.335,0.334-0.335
			s0.336,0.15,0.336,0.335v5.361C65.801,42.867,65.65,43.018,65.465,43.018z"/>
		<g>
			<path fill="#FFFFFF" d="M66.805,37.656h-2.68c-0.186,0-0.336-0.15-0.336-0.335v-7.483c0-0.185,0.15-0.335,0.336-0.335h2.68
				c0.186,0,0.336,0.15,0.336,0.335v7.483C67.141,37.506,66.99,37.656,66.805,37.656z M64.459,36.986h2.012v-6.813h-2.012V36.986z"
				/>
			<path fill="#FFFFFF" d="M66.805,50.5h-2.68c-0.186,0-0.336-0.15-0.336-0.336v-7.482c0-0.186,0.15-0.334,0.336-0.334h2.68
				c0.186,0,0.336,0.148,0.336,0.334v7.482C67.141,50.35,66.99,50.5,66.805,50.5z M64.459,49.83h2.012v-6.813h-2.012V49.83z"/>
		</g>
		<g>
			<path fill="#FFF200" d="M49.225,50.26c-5.658,0-10.26-4.602-10.26-10.258c0-5.658,4.602-10.26,10.26-10.26
				c5.656,0,10.258,4.603,10.258,10.26C59.482,45.658,54.881,50.26,49.225,50.26z M49.225,30.412c-5.287,0-9.59,4.302-9.59,9.59
				c0,5.287,4.303,9.588,9.59,9.588s9.588-4.301,9.588-9.588C58.813,34.714,54.512,30.412,49.225,30.412z"/>
			<path fill="#FFFFFF" d="M49.225,43.74c-2.063,0-3.74-1.678-3.74-3.738c0-2.063,1.678-3.741,3.74-3.741
				c2.061,0,3.738,1.678,3.738,3.741C52.963,42.063,51.285,43.74,49.225,43.74z M49.225,36.931c-1.693,0-3.07,1.377-3.07,3.071
				c0,1.691,1.377,3.068,3.07,3.068c1.691,0,3.068-1.377,3.068-3.068C52.293,38.309,50.916,36.931,49.225,36.931z"/>
			<g>
				<path fill="#FFF200" d="M49.225,35.259c-0.186,0-0.336-0.15-0.336-0.335v-3.199c0-0.185,0.15-0.335,0.336-0.335
					s0.334,0.15,0.334,0.335v3.199C49.559,35.109,49.41,35.259,49.225,35.259z"/>
				<path fill="#FFF200" d="M49.225,48.611c-0.186,0-0.336-0.15-0.336-0.334v-3.199c0-0.186,0.15-0.336,0.336-0.336
					s0.334,0.15,0.334,0.336v3.199C49.559,48.461,49.41,48.611,49.225,48.611z"/>
			</g>
			<path fill="#FFF200" d="M46.713,34.272c-0.133,0-0.256-0.078-0.311-0.207l-0.654-1.582c-0.072-0.171,0.01-0.367,0.182-0.438
				c0.17-0.072,0.365,0.01,0.438,0.181l0.654,1.582c0.072,0.171-0.01,0.367-0.182,0.438C46.799,34.264,46.756,34.272,46.713,34.272z
				"/>
			<path fill="#FFF200" d="M52.391,47.982c-0.131,0-0.256-0.078-0.309-0.207l-1.225-2.957c-0.072-0.17,0.01-0.365,0.182-0.438
				c0.17-0.072,0.365,0.012,0.438,0.182l1.225,2.957c0.07,0.17-0.012,0.365-0.182,0.438C52.477,47.975,52.434,47.982,52.391,47.982z
				"/>
			<path fill="#FFF200" d="M44.666,35.779c-0.086,0-0.172-0.033-0.236-0.098l-1.295-1.295c-0.131-0.131-0.131-0.343,0-0.474
				c0.131-0.131,0.344-0.131,0.475,0l1.295,1.295c0.131,0.131,0.131,0.343,0,0.474C44.838,35.746,44.752,35.779,44.666,35.779z"/>
			<path fill="#FFF200" d="M55.076,46.188c-0.086,0-0.172-0.031-0.238-0.098l-2.262-2.262c-0.131-0.131-0.131-0.344,0-0.475
				s0.344-0.131,0.475,0l2.262,2.262c0.131,0.131,0.131,0.344,0,0.475C55.248,46.156,55.162,46.188,55.076,46.188z"/>
			<g>
				<path fill="#FFF200" d="M44.533,38.393c-0.043,0-0.086-0.008-0.127-0.025l-2.955-1.223c-0.172-0.071-0.254-0.267-0.182-0.438
					c0.07-0.171,0.266-0.253,0.438-0.181l2.955,1.223c0.17,0.07,0.252,0.268,0.182,0.438C44.789,38.314,44.666,38.393,44.533,38.393
					z"/>
				<path fill="#FFF200" d="M56.869,43.502c-0.043,0-0.086-0.008-0.127-0.025l-2.955-1.223c-0.172-0.07-0.254-0.268-0.182-0.438
					c0.07-0.172,0.266-0.254,0.438-0.182l2.955,1.223c0.17,0.07,0.252,0.268,0.182,0.438C57.125,43.424,57.002,43.502,56.869,43.502
					z"/>
			</g>
			<g>
				<path fill="#FFF200" d="M44.146,40.336h-3.197c-0.186,0-0.336-0.148-0.336-0.334s0.15-0.336,0.336-0.336h3.197
					c0.186,0,0.336,0.15,0.336,0.336S44.332,40.336,44.146,40.336z"/>
				<path fill="#FFF200" d="M57.5,40.336h-3.199c-0.184,0-0.334-0.15-0.334-0.336s0.15-0.334,0.334-0.334H57.5
					c0.184,0,0.334,0.148,0.334,0.334S57.684,40.336,57.5,40.336z"/>
			</g>
			<g>
				<path fill="#FFF200" d="M41.578,43.504c-0.131,0-0.256-0.078-0.309-0.207c-0.072-0.172,0.01-0.367,0.182-0.438l2.955-1.225
					c0.17-0.072,0.365,0.01,0.438,0.182c0.07,0.17-0.012,0.365-0.182,0.438l-2.955,1.225C41.664,43.496,41.621,43.504,41.578,43.504
					z"/>
				<path fill="#FFF200" d="M53.914,38.393c-0.131,0-0.256-0.078-0.309-0.207c-0.072-0.17,0.01-0.367,0.182-0.438l2.955-1.223
					c0.17-0.072,0.365,0.01,0.438,0.181c0.07,0.171-0.012,0.367-0.182,0.438l-2.955,1.223C54,38.385,53.957,38.393,53.914,38.393z"
					/>
			</g>
			<g>
				<path fill="#FFF200" d="M43.373,46.188c-0.086,0-0.172-0.031-0.238-0.098c-0.131-0.131-0.131-0.344,0-0.475l2.262-2.262
					c0.131-0.131,0.344-0.131,0.475,0s0.131,0.344,0,0.475l-2.262,2.262C43.545,46.156,43.459,46.188,43.373,46.188z"/>
				<path fill="#FFF200" d="M52.814,36.746c-0.086,0-0.172-0.033-0.238-0.098c-0.131-0.131-0.131-0.343,0-0.474l2.262-2.262
					c0.131-0.131,0.344-0.131,0.475,0s0.131,0.343,0,0.474l-2.262,2.262C52.986,36.713,52.9,36.746,52.814,36.746z"/>
			</g>
			<g>
				<path fill="#FFF200" d="M46.057,47.982c-0.043,0-0.086-0.008-0.127-0.025c-0.172-0.072-0.254-0.268-0.182-0.438l1.225-2.955
					c0.07-0.172,0.268-0.254,0.438-0.182c0.17,0.07,0.252,0.266,0.182,0.438l-1.225,2.955
					C46.313,47.904,46.188,47.982,46.057,47.982z"/>
				<path fill="#FFF200" d="M51.166,35.646c-0.043,0-0.086-0.008-0.127-0.025c-0.172-0.071-0.254-0.267-0.182-0.438l1.225-2.956
					c0.07-0.171,0.266-0.251,0.438-0.181c0.17,0.071,0.252,0.267,0.182,0.438l-1.225,2.956
					C51.422,35.568,51.297,35.646,51.166,35.646z"/>
			</g>
			<path fill="#FFFFFF" d="M46.359,38.264c-0.15,0-0.285-0.102-0.324-0.254l-0.959-3.778c-0.035-0.138,0.021-0.284,0.141-0.362
				c0.117-0.079,0.275-0.073,0.387,0.014l3.125,2.385c0.146,0.112,0.176,0.322,0.063,0.469c-0.113,0.147-0.324,0.174-0.469,0.063
				l-2.359-1.801l0.723,2.847c0.045,0.18-0.064,0.361-0.244,0.408C46.414,38.26,46.387,38.264,46.359,38.264z"/>
		</g>
		<g>
			<path fill="#FFFFFF" d="M20.08,31.884h-3.164c-0.184,0-0.334-0.15-0.334-0.335v-3.162c0-0.185,0.15-0.335,0.334-0.335h3.164
				c0.186,0,0.334,0.15,0.334,0.335v3.162C20.414,31.734,20.266,31.884,20.08,31.884z M17.252,31.214h2.492v-2.492h-2.492V31.214z"
				/>
			<path fill="#FFFFFF" d="M25.162,31.884h-3.16c-0.186,0-0.336-0.15-0.336-0.335v-3.162c0-0.185,0.15-0.335,0.336-0.335h3.16
				c0.186,0,0.336,0.15,0.336,0.335v3.162C25.498,31.734,25.348,31.884,25.162,31.884z M22.336,31.214h2.492v-2.492h-2.492V31.214z"
				/>
			<path fill="#FFFFFF" d="M30.248,31.884h-3.162c-0.186,0-0.336-0.15-0.336-0.335v-3.162c0-0.185,0.15-0.335,0.336-0.335h3.162
				c0.184,0,0.334,0.15,0.334,0.335v3.162C30.582,31.734,30.432,31.884,30.248,31.884z M27.42,31.214h2.492v-2.492H27.42V31.214z"/>
			<path fill="#FFFFFF" d="M20.08,36.853h-3.164c-0.184,0-0.334-0.15-0.334-0.335v-3.162c0-0.185,0.15-0.335,0.334-0.335h3.164
				c0.186,0,0.334,0.15,0.334,0.335v3.162C20.414,36.703,20.266,36.853,20.08,36.853z M17.252,36.183h2.492v-2.492h-2.492V36.183z"
				/>
			<path fill="#FFFFFF" d="M25.162,36.853h-3.16c-0.186,0-0.336-0.15-0.336-0.335v-3.162c0-0.185,0.15-0.335,0.336-0.335h3.16
				c0.186,0,0.336,0.15,0.336,0.335v3.162C25.498,36.703,25.348,36.853,25.162,36.853z M22.336,36.183h2.492v-2.492h-2.492V36.183z"
				/>
			<path fill="#FFFFFF" d="M30.248,36.853h-3.162c-0.186,0-0.336-0.15-0.336-0.335v-3.162c0-0.185,0.15-0.335,0.336-0.335h3.162
				c0.184,0,0.334,0.15,0.334,0.335v3.162C30.582,36.703,30.432,36.853,30.248,36.853z M27.42,36.183h2.492v-2.492H27.42V36.183z"/>
			<path fill="#FFFFFF" d="M20.08,41.822h-3.164c-0.184,0-0.334-0.15-0.334-0.336v-3.162c0-0.184,0.15-0.334,0.334-0.334h3.164
				c0.186,0,0.334,0.15,0.334,0.334v3.162C20.414,41.672,20.266,41.822,20.08,41.822z M17.252,41.152h2.492V38.66h-2.492V41.152z"/>
			<path fill="#FFFFFF" d="M25.162,41.822h-3.16c-0.186,0-0.336-0.15-0.336-0.336v-3.162c0-0.184,0.15-0.334,0.336-0.334h3.16
				c0.186,0,0.336,0.15,0.336,0.334v3.162C25.498,41.672,25.348,41.822,25.162,41.822z M22.336,41.152h2.492V38.66h-2.492V41.152z"
				/>
			<path fill="#FFFFFF" d="M25.162,46.578h-3.16c-0.186,0-0.336-0.15-0.336-0.334V43.08c0-0.186,0.15-0.334,0.336-0.334h3.16
				c0.186,0,0.336,0.148,0.336,0.334v3.164C25.498,46.428,25.348,46.578,25.162,46.578z M22.336,45.908h2.492v-2.492h-2.492V45.908z
				"/>
			<path fill="#FFFFFF" d="M30.248,41.822h-3.162c-0.186,0-0.336-0.15-0.336-0.336v-3.162c0-0.184,0.15-0.334,0.336-0.334h3.162
				c0.184,0,0.334,0.15,0.334,0.334v3.162C30.582,41.672,30.432,41.822,30.248,41.822z M27.42,41.152h2.492V38.66H27.42V41.152z"/>
		</g>
	</g>
</g>
</svg>
