<?xml version="1.0" encoding="utf-8"?>
<!-- Generator: Adobe Illustrator 16.0.0, SVG Export Plug-In . SVG Version: 6.00 Build 0)  -->
<!DOCTYPE svg PUBLIC "-//W3C//DTD SVG 1.1//EN" "http://www.w3.org/Graphics/SVG/1.1/DTD/svg11.dtd">
<svg version="1.1" id="Layer_1" xmlns="http://www.w3.org/2000/svg" xmlns:xlink="http://www.w3.org/1999/xlink" x="0px" y="0px"
	 width="14.109px" height="14.11px" viewBox="0 0 14.109 14.11" enable-background="new 0 0 14.109 14.11" xml:space="preserve">
<g id="star_x5F_fil">
	<g id="star_x5F_lin">
		<path d="M14.109,13.191l-3.228-3.23c0.88-1.085,1.359-2.426,1.359-3.841c0-1.634-0.637-3.171-1.794-4.327
			C9.291,0.637,7.754,0,6.12,0C4.485,0,2.948,0.637,1.791,1.793c-2.385,2.387-2.383,6.269,0.003,8.653
			c1.156,1.156,2.692,1.793,4.326,1.793c1.415,0,2.757-0.479,3.843-1.359l3.227,3.229L14.109,13.191z M2.713,9.526
			C0.834,7.648,0.833,4.591,2.71,2.712C3.622,1.801,4.833,1.3,6.12,1.3c1.286,0,2.497,0.501,3.408,1.413
			c0.911,0.91,1.413,2.121,1.413,3.407s-0.502,2.497-1.412,3.407c-0.912,0.911-2.123,1.412-3.409,1.412S3.624,10.438,2.713,9.526z"
			/>
	</g>
</g>
</svg>
