<?xml version="1.0" encoding="utf-8"?>
<!-- Generator: Adobe Illustrator 16.0.0, SVG Export Plug-In . SVG Version: 6.00 Build 0)  -->
<!DOCTYPE svg PUBLIC "-//W3C//DTD SVG 1.1//EN" "http://www.w3.org/Graphics/SVG/1.1/DTD/svg11.dtd">
<svg version="1.1" id="Layer_1" xmlns="http://www.w3.org/2000/svg" xmlns:xlink="http://www.w3.org/1999/xlink" x="0px" y="0px"
	 width="16px" height="15.219px" viewBox="0 0 16 15.219" enable-background="new 0 0 16 15.219" xml:space="preserve">
<g id="star_x5F_fil">
	<g id="star_x5F_lin">
		<path d="M8,2.819l1.396,2.829l0.279,0.566L10.3,6.304l3.121,0.453l-2.258,2.2l-0.451,0.44l0.106,0.621l0.533,3.113l-2.793-1.47
			L8,11.369l-0.559,0.293l-2.795,1.47l0.534-3.112l0.106-0.622l-0.451-0.44l-2.257-2.2l3.12-0.453l0.625-0.091l0.279-0.565L8,2.819
			 M8,0.107l-2.473,5.01L0,5.919l3.998,3.897l-0.945,5.509L8,12.725l4.944,2.601l-0.943-5.509L16,5.919l-5.528-0.802L8,0.107
			L8,0.107z"/>
	</g>
</g>
</svg>
